<svg width="27" height="4" viewBox="0 0 27 4" fill="none" xmlns="http://www.w3.org/2000/svg">
<path d="M1 1.75C0.861929 1.75 0.75 1.86193 0.75 2C0.75 2.13807 0.861929 2.25 1 2.25L1 1.75ZM26.1768 2.17678C26.2744 2.07915 26.2744 1.92086 26.1768 1.82323L24.5858 0.232235C24.4882 0.134604 24.3299 0.134604 24.2322 0.232235C24.1346 0.329866 24.1346 0.488157 24.2322 0.585788L25.6464 2L24.2322 3.41422C24.1346 3.51185 24.1346 3.67014 24.2322 3.76777C24.3299 3.8654 24.4882 3.8654 24.5858 3.76777L26.1768 2.17678ZM1 2.25L26 2.25L26 1.75L1 1.75L1 2.25Z" fill="#0071DC"/>
</svg>
