<svg width="35" height="35" viewBox="0 0 35 35" fill="none" xmlns="http://www.w3.org/2000/svg">
<path fill-rule="evenodd" clip-rule="evenodd" d="M30.2607 10.2083C30.2607 10.8123 29.7711 11.302 29.167 11.302L5.83365 11.302C5.22959 11.302 4.7399 10.8123 4.7399 10.2083C4.7399 9.60419 5.22959 9.1145 5.83365 9.1145L29.167 9.1145C29.7711 9.1145 30.2607 9.60419 30.2607 10.2083Z" fill="white"/>
<path fill-rule="evenodd" clip-rule="evenodd" d="M30.2607 17.5C30.2607 18.1041 29.7711 18.5938 29.167 18.5938L5.83365 18.5938C5.22959 18.5938 4.7399 18.1041 4.7399 17.5C4.7399 16.8959 5.22959 16.4063 5.83365 16.4063L29.167 16.4062C29.7711 16.4062 30.2607 16.8959 30.2607 17.5Z" fill="white"/>
<path fill-rule="evenodd" clip-rule="evenodd" d="M30.2607 24.7917C30.2607 25.3958 29.7711 25.8855 29.167 25.8855L5.83365 25.8855C5.22959 25.8855 4.7399 25.3958 4.7399 24.7917C4.7399 24.1877 5.22959 23.698 5.83365 23.698L29.167 23.698C29.7711 23.698 30.2607 24.1877 30.2607 24.7917Z" fill="white"/>
</svg>
