<svg width="29" height="29" viewBox="0 0 29 29" fill="none" xmlns="http://www.w3.org/2000/svg">
<path d="M28.4707 24.5163C28.4707 25.5651 28.061 26.5709 27.3317 27.3124C26.6024 28.054 25.6132 28.4706 24.5818 28.4706H4.35959C3.32819 28.4706 2.33904 28.054 1.60973 27.3124C0.880424 26.5709 0.470703 25.5651 0.470703 24.5163V3.95425C0.470703 2.90552 0.880424 1.89974 1.60973 1.15817C2.33904 0.416607 3.32819 0 4.35959 0H24.5818C25.6132 0 26.6024 0.416607 27.3317 1.15817C28.061 1.89974 28.4707 2.90552 28.4707 3.95425V24.5163Z" fill="white"/>
<path d="M19.8787 11.0042C19.4812 11.1894 18.9777 11.3633 18.5265 11.4211C18.9853 11.1349 19.7133 10.5391 19.8787 10C19.4501 10.2648 18.6748 10.5476 18.169 10.6499C17.7651 10.1999 17.1891 10 16.5508 10C15.3247 10 14.4696 11.0918 14.4696 12.3684V13.3158C12.6666 13.3158 10.9087 11.8725 9.81466 10.4737C9.61685 10.8262 9.513 11.2283 9.51401 11.6375C9.51401 12.4992 10.2672 13.3736 10.8636 13.7895C10.4998 13.7776 9.81106 13.4858 9.5113 13.3158V13.3428C9.5113 14.464 10.26 15.2252 11.2747 15.4374C11.0894 15.4909 10.8636 15.6842 9.99452 15.6842C10.2767 16.6008 11.6952 17.0854 12.6666 17.1053C11.9066 17.7244 10.5517 18.0526 9.5113 18.0526C9.33145 18.0526 9.23409 18.0631 9.06055 18.0417C10.0423 18.6954 11.4135 19 12.6666 19C16.7491 19 18.9772 15.7231 18.9772 12.6668C18.9772 12.5664 18.9741 12.2301 18.9691 12.1316C19.4054 11.8085 19.5821 11.4703 19.8787 11.0042Z" fill="#0071DC"/>
</svg>
